<?xml version="1.0" standalone="no"?>
<!DOCTYPE svg PUBLIC "-//W3C//DTD SVG 20010904//EN"
 "http://www.w3.org/TR/2001/REC-SVG-20010904/DTD/svg10.dtd">
<svg version="1.0" xmlns="http://www.w3.org/2000/svg"
 width="260.000000pt" height="260.000000pt" viewBox="0 0 260.000000 260.000000"
 preserveAspectRatio="xMidYMid meet">
<metadata>
Created by potrace 1.11, written by Peter Selinger 2001-2013
</metadata>
<g fill="#000000" stroke="none">
<path d="M57.6,223.5c-4.9,0-10-0.9-12.5-2.2c-0.5-0.2-1.4-0.7-1-1.8l1-3c0.2-1,0.8-1.2,1.1-1.2c0.2,0,0.5,0.1,0.7,0.2
  c2.7,1.2,6.7,1.9,10.5,1.9c6.8,0,10.7-2.6,10.7-7.1c0-4.9-4.5-6.9-9.8-9.1l-0.6-0.3c-6.6-2.8-12.7-5.5-12.7-14.3
  c0-5.8,2.7-12.7,15.6-12.7c4.3,0,8.2,0.7,11,2c0.3,0.1,1.3,0.6,1,1.8l-1,3c-0.1,0.3-0.3,1-1.2,1c-0.2,0-0.5-0.1-0.7-0.2
  c-2.4-1-5.2-1.5-8.7-1.5c-6.7,0-9.6,2-9.6,6.6c0,4.4,3.5,6,7.9,8c0.5,0.2,1.1,0.5,1.7,0.8l0.5,0.2c6.7,3.1,13.1,6,13.1,14.8
  C74.4,218.7,68.3,223.5,57.6,223.5L57.6,223.5z M96.6,223.7c-10.6,0-17.3-7.2-17.3-18.9c0-11.9,5.8-19,15.6-19
  c9.2,0,14.9,6.5,14.9,16.9v3.4c0,1.1-0.6,1.7-1.7,1.7H85.8c0.7,6,5,9.9,11.1,9.9c3.5,0,5.6-0.8,7.9-2.1c0.3-0.2,0.6-0.2,0.8-0.2
  c0.4,0,1,0.2,1.5,1.2l1,2.5c0.2,0.9-0.2,1.5-1,2C105.3,222.1,101.6,223.7,96.6,223.7z M103.7,202c-0.1-6.5-3.3-10.2-8.7-10.2
  c-5.6,0-8.8,3.4-9.3,10.2H103.7z M118.4,222.9c-0.7,0-1.6-0.3-1.6-1.7v-45.3c0-1.1,0.6-1.7,1.6-1.7h3.1c1,0,1.6,0.6,1.6,1.7v45.3
  c0,1.4-0.9,1.7-1.6,1.7H118.4z M147.4,223.7c-10.6,0-17.3-7.2-17.3-18.9c0-11.9,5.8-19,15.6-19c9.2,0,14.9,6.5,14.9,16.9v3.4
  c0,1.1-0.6,1.7-1.7,1.7h-22.4c0.7,6,5,9.9,11.1,9.9c3.5,0,5.6-0.8,7.9-2.1c0.3-0.2,0.6-0.2,0.8-0.2c0.4,0,1,0.2,1.5,1.2l1,2.5
  c0.2,0.9-0.2,1.5-1,2C156.1,222.1,152.4,223.7,147.4,223.7z M154.4,202c-0.1-6.5-3.3-10.2-8.7-10.2c-5.6,0-8.8,3.4-9.3,10.2H154.4z
    M182.1,223.6c-10.2,0-16.6-7.3-16.6-19c0-11.6,6.2-18.8,16.1-18.8c5.4,0,8.5,1.6,9.3,2.1c0.5,0.3,1.2,0.9,1,2l-1.1,2.8
  c-0.4,0.9-1,1.1-1.4,1.1c-0.3,0-0.6-0.1-0.9-0.2c-2-1-3.9-1.5-6.3-1.5c-6.7,0-10.3,4.3-10.3,12.6c0,8.1,3.6,12.8,9.9,12.8
  c2.6,0,5-0.6,7.1-1.9c0.3-0.2,0.6-0.2,0.9-0.2c0.3,0,1,0.1,1.3,1.1l1,2.8c0.2,1.1-0.4,1.6-1,2C189.8,222.1,186.1,223.6,182.1,223.6
  z M210.5,223.3c-7.1,0-9.9-3.2-9.9-11.5v-19h-3.8c-1.1,0-1.7-0.6-1.7-1.7v-2.8c0-1.1,0.6-1.7,1.7-1.7h3.9v-7.9
  c0-1.1,0.6-1.7,1.6-1.7h2.9c1.1,0,1.7,0.6,1.7,1.7v7.9h7.6c1,0,1.7,0.6,1.7,1.7v2.8c0,1.1-0.6,1.7-1.7,1.7h-7.6v18.5
  c0,4.8,0.9,5.9,4.6,5.9c0.9,0,1.4-0.1,1.9-0.3c0.3-0.1,0.5-0.1,0.9-0.2c0.1,0,0.2,0,0.3,0c1.1,0,1.3,1,1.4,1.4l0.6,2.6
  c0.2,1.2-0.7,1.6-1,1.8C214.4,223,212.1,223.3,210.5,223.3L210.5,223.3z"/>
<path d="M61,104.8l-0.6,0.3l-1.1,0.5l0.6,1.1l16.4,31.2c0.6,1.2,0.8,2.2,0.5,3c-0.1,0.2-0.4,0.8-2.1,0.8H54.1c-2.7,0-4.5-1-5.6-3.3
  L35,110.2l-0.3-0.7h-0.8h-5.6h-1.2v1.2v27.6c0,2.5-0.9,3.4-3.4,3.4H3.4c-2.5,0-3.4-0.9-3.4-3.4V39.7c0-2.5,0.9-3.4,3.4-3.4h33.4
  c14.3,0,24.8,2.8,31.2,8.3c6.3,5.5,9.4,15.3,9.4,29.1C77.4,89.1,71.9,99.6,61,104.8z M46.9,84.6c2-2.3,2.9-5.8,2.9-10.8
  c0-5.3-1-9-2.9-11.2c-2-2.2-5.4-3.3-10.4-3.3h-8.1h-1.2v1.2v26.3V88h1.2h8.1C41.4,88,44.9,86.9,46.9,84.6z M117.2,36.3
  c2.5,0,3.4,0.9,3.4,3.4v98.6c0,2.5-0.9,3.4-3.4,3.4H96.8c-2.5,0-3.4-0.9-3.4-3.4V39.7c0-2.5,0.9-3.4,3.4-3.4L117.2,36.3z
    M171.7,36.3c15.7,0,27.2,4,34.2,11.8C213,56,216.6,69.7,216.6,89c0,19.3-3.6,33-10.6,40.9c-7,7.8-18.4,11.8-34,11.8h-30.3
  c-2.5,0-3.4-0.9-3.4-3.4V39.7c0-2.5,0.9-3.4,3.4-3.4L171.7,36.3z M185.2,111.7c2.6-4,3.8-11.5,3.8-22.7c0-11.3-1.3-18.7-4-22.7
  c-2.8-4.2-7.6-6.4-14.1-6.4h-4.1h-1.2v1.2v55.7v1.2h1.2h4.5C177.8,118.1,182.5,115.9,185.2,111.7z M256.6,36.3
  c2.5,0,3.4,0.9,3.4,3.4v98.6c0,2.5-0.9,3.4-3.4,3.4h-20.5c-2.5,0-3.4-0.9-3.4-3.4V39.7c0-2.5,0.9-3.4,3.4-3.4L256.6,36.3z"/>
</g>
</svg>
